<?xml version="1.0" encoding="utf-8"?>
<svg version="1.1" xmlns="http://www.w3.org/2000/svg" xmlns:xlink="http://www.w3.org/1999/xlink" width="32px" height="32px" viewBox="0 0 32 32">
    <circle fill="#1E272B" cx="16" cy="16" r="16"/>
    <path fill="#D4A169" d="M14.74,12.51c0.22,0.33,0.4,0.75,0.54,1.24c0.14,0.49,0.21,1.01,0.21,1.55c0,1.16-0.3,2.22-0.89,3.16
        c-0.6,0.94-1.47,1.68-2.64,2.22l-0.31-0.6c0.65-0.27,1.21-0.68,1.7-1.24c0.48-0.56,0.76-1.13,0.86-1.72
        c0.06-0.27,0.1-0.53,0.1-0.77c0-0.23-0.04-0.44-0.1-0.63c-0.5,0.53-1.14,0.81-1.95,0.81c-0.79,0-1.43-0.23-1.92-0.69
        c-0.49-0.46-0.74-1.09-0.74-1.9c0-0.77,0.26-1.38,0.77-1.87c0.52-0.48,1.17-0.72,1.99-0.72C13.45,11.33,14.25,11.72,14.74,12.51z
         M21.66,12.51c0.23,0.33,0.4,0.75,0.54,1.24c0.13,0.49,0.2,1.01,0.2,1.55c0,1.16-0.29,2.22-0.89,3.16
        c-0.59,0.94-1.47,1.68-2.64,2.22l-0.3-0.6c0.65-0.27,1.21-0.68,1.69-1.24c0.48-0.56,0.77-1.13,0.86-1.72
        c0.07-0.27,0.1-0.53,0.1-0.77c0-0.23-0.03-0.44-0.1-0.63c-0.49,0.53-1.14,0.81-1.95,0.81c-0.78,0-1.42-0.23-1.91-0.69
        c-0.5-0.46-0.75-1.09-0.75-1.9c0-0.77,0.26-1.38,0.78-1.87c0.51-0.48,1.17-0.72,1.98-0.72C20.37,11.33,21.17,11.72,21.66,12.51z"/>
</svg>